<svg width="187" height="190" viewBox="0 0 187 190" fill="none" xmlns="http://www.w3.org/2000/svg">
<path d="M61.2068 33.3561C61.5732 32.2174 61.9537 31.2679 62.3396 30.481C62.7131 29.6897 63.171 29.0889 63.5745 28.602C64.4041 27.6352 65.203 27.1903 65.9311 27.0048C67.4007 26.6432 68.5875 27.2948 69.1352 26.963C69.1352 26.963 69.0268 27.2505 68.8213 27.6977C68.6229 28.1478 68.3614 28.7712 68.0008 29.4237C67.6436 30.0783 67.2012 30.7684 66.6775 31.3721C66.187 31.9869 65.6128 32.5148 64.9537 32.8263C63.6356 33.4508 62.6945 33.5959 62.0881 33.5705C61.4808 33.5473 61.2068 33.3561 61.2068 33.3561Z" fill="#87B7FF"/>
<path d="M61.2065 33.3559C61.573 32.2172 61.8171 31.2254 61.9653 30.3537C62.1008 29.4781 62.2195 28.7503 62.2137 28.103C62.2241 26.8171 61.9257 25.9181 61.514 25.2567C60.707 23.9363 59.4314 23.5848 59.2993 22.9122C59.2993 22.9122 59.1518 23.2243 58.9486 23.7368C58.7529 24.2518 58.5353 24.9812 58.3434 25.79C58.1544 26.6005 58.0057 27.4959 57.9841 28.3553C57.9961 29.2262 58.133 30.0586 58.4747 30.7331C59.1589 32.0806 59.8457 32.7236 60.3573 33.044C60.8691 33.3631 61.2065 33.3559 61.2065 33.3559Z" fill="#87B7FF"/>
<path d="M58.8955 42.6378C59.9655 37.4112 61.8893 35.6706 63.4352 35.1162C65.0085 34.5632 66.4 35.166 66.9678 34.7451C66.9678 34.7451 66.8777 35.0724 66.6965 35.5848C66.5397 36.1049 66.3023 36.8122 65.9734 37.568C65.2821 39.0704 64.3724 40.8075 62.9727 41.6374C61.5665 42.4656 60.5526 42.7337 59.8913 42.776C59.2236 42.8189 58.8955 42.6378 58.8955 42.6378Z" fill="#87B7FF"/>
<path d="M58.8948 42.6377C59.9566 37.4458 59.4349 35.0358 58.3675 33.6397C57.3252 32.2554 55.8888 32.0003 55.6723 31.2656C55.6723 31.2656 55.5401 31.6281 55.3665 32.2189C55.2176 32.8169 55.0369 33.6466 54.9081 34.5664C54.6167 36.3984 54.6856 38.6239 55.5783 40.0394C56.464 41.4536 57.3059 42.0888 57.9189 42.3885C58.5264 42.6843 58.8948 42.6377 58.8948 42.6377Z" fill="#87B7FF"/>
<path d="M57.4487 53.1656C57.9617 47.2578 59.9015 45.1108 61.5715 44.3321C63.2602 43.5476 64.8371 44.0517 65.4061 43.524C65.4061 43.524 65.2104 45.0086 64.6326 46.737C64.3382 47.6013 64.033 48.5435 63.5607 49.3955C63.1022 50.2494 62.5012 51.0197 61.8104 51.5637C60.3963 52.6484 59.3037 53.0688 58.5675 53.1959C57.8303 53.3252 57.4487 53.1656 57.4487 53.1656Z" fill="#87B7FF"/>
<path d="M57.4478 53.1658C57.9546 47.301 57.1146 44.6969 55.802 43.2774C54.5059 41.8643 52.8611 41.7393 52.5285 40.9455C52.5285 40.9455 52.1577 42.6314 52.057 44.7027C52.0013 45.7365 52.0985 46.8765 52.295 47.9313C52.5053 48.9879 52.8395 49.963 53.4496 50.6966C54.637 52.1594 55.6391 52.7566 56.3417 53.0112C57.044 53.2626 57.4478 53.1658 57.4478 53.1658Z" fill="#87B7FF"/>
<path d="M57.1999 64.9684C57.1726 64.1489 57.1438 63.3888 57.1908 62.6844C57.2378 61.98 57.3071 61.3318 57.3947 60.7365C57.5646 59.5454 57.8154 58.565 58.1696 57.7608C58.8488 56.1508 59.6954 55.2396 60.5797 54.6996C62.376 53.6292 64.1749 53.991 64.7543 53.3444C64.7543 53.3444 64.7357 53.7575 64.6585 54.4144C64.5628 55.07 64.4899 55.9759 64.2947 56.9613C63.8692 58.9307 63.2626 61.2422 61.7885 62.6213C60.3583 64.0002 59.2358 64.6109 58.4357 64.8494C57.6436 65.0923 57.1999 64.9684 57.1999 64.9684Z" fill="#87B7FF"/>
<path d="M57.1991 64.9685C56.9818 58.4342 55.7413 55.6653 54.0786 54.2551C52.502 52.8545 50.6655 52.9192 50.2181 52.0798C50.2181 52.0798 50.1571 52.5577 50.1079 53.3259C50.0406 54.093 50.0667 55.1548 50.156 56.3107C50.2978 58.6238 51.0042 61.314 52.4509 62.776C53.9407 64.2378 55.1526 64.7606 55.9569 64.9474C56.7676 65.1299 57.1991 64.9685 57.1991 64.9685Z" fill="#87B7FF"/>
<path d="M58.5936 78.0111C58.4419 77.1127 58.3179 76.277 58.2472 75.4969C58.1987 74.7139 58.1818 73.9898 58.1932 73.3216C58.2045 72.6535 58.2444 72.0401 58.3081 71.4784C58.3871 70.9147 58.5031 70.4011 58.6296 69.9347C59.1471 68.0679 59.9424 66.9499 60.8748 66.2345C62.6999 64.8148 64.735 64.971 65.2797 64.1851C65.2797 64.1851 65.3195 64.6396 65.3288 65.3685C65.3335 65.733 65.3309 66.1665 65.3121 66.6471C65.3068 67.1272 65.3024 67.6532 65.2662 68.2055C65.0817 70.4184 64.723 73.0343 63.3026 74.7607C61.9444 76.4779 60.7792 77.3186 59.9377 77.6986C59.0993 78.0819 58.5936 78.0111 58.5936 78.0111Z" fill="#87B7FF"/>
<path d="M58.5933 78.011C58.4415 77.1126 58.2641 76.2861 58.0916 75.5199C57.9413 74.7508 57.7756 74.0455 57.5954 73.3968C57.4157 72.7484 57.2218 72.157 57.0166 71.6166C56.8268 71.0743 56.6379 70.5823 56.4302 70.1361C55.6096 68.3514 54.5955 67.2934 53.6453 66.6297C51.7058 65.2955 49.6906 65.6146 49.0772 64.7442C49.0772 64.7442 49.0788 65.2832 49.1351 66.1418C49.1633 66.5715 49.2053 67.081 49.2674 67.6421C49.3431 68.2027 49.4565 68.8139 49.5894 69.4485C50.0807 71.9937 51.2277 74.8789 53.0396 76.2858C54.9128 77.6835 56.3055 78.084 57.2227 78.1707C58.1411 78.2524 58.5933 78.011 58.5933 78.011Z" fill="#87B7FF"/>
<path d="M62.1265 92.1482C61.8277 91.1804 61.5821 90.2739 61.3814 89.4269C61.1773 88.5815 61.0228 87.7944 60.953 87.0514C60.7954 85.5704 60.7615 84.3259 60.904 83.2601C61.2083 81.1239 61.9326 79.7733 62.8202 78.8557C64.6281 77.0248 66.8909 76.8963 67.3806 75.9566C67.3806 75.9566 67.4883 76.4473 67.6008 77.2429C67.6926 78.0425 67.885 79.1289 67.958 80.3488C68.0024 80.9572 68.0029 81.603 68.0067 82.2509C68.0165 82.8978 67.9914 83.5561 67.9158 84.2057C67.8411 84.8552 67.7164 85.4964 67.5292 86.1073C67.3604 86.7137 67.1349 87.2879 66.8238 87.813C65.5846 89.9142 64.42 91.033 63.5542 91.5869C62.6947 92.1436 62.1265 92.1482 62.1265 92.1482Z" fill="#87B7FF"/>
<path d="M62.1258 92.1483C59.6741 84.4621 57.3488 81.5428 54.9191 80.3707C52.5927 79.1837 50.4197 79.8326 49.6179 78.9574C49.6179 78.9574 49.6973 79.5552 49.8835 80.5003C50.0481 81.4495 50.4158 82.7274 50.8912 84.0976C51.1362 84.7808 51.3939 85.4903 51.7266 86.1786C52.0643 86.8651 52.4381 87.5398 52.8466 88.1687C53.2555 88.798 53.6991 89.3815 54.178 89.8877C54.6751 90.3885 55.2148 90.8092 55.7805 91.1239C58.0494 92.3765 59.6252 92.5977 60.6457 92.5456C61.6695 92.4868 62.1258 92.1483 62.1258 92.1483Z" fill="#87B7FF"/>
<path d="M68.4463 107.053C67.9378 106.049 67.4966 105.104 67.1176 104.215C66.7585 103.317 66.4884 102.463 66.2553 101.672C66.0333 100.877 65.8351 100.15 65.7384 99.4522C65.6375 98.7558 65.5814 98.1129 65.5648 97.5187C65.4696 95.1507 66.1318 93.518 66.9463 92.3721C68.6092 90.0809 71.0512 89.5805 71.4628 88.4693C71.4628 88.4693 71.6387 88.9922 71.9208 89.8296C72.2024 90.6667 72.5069 91.8461 72.8013 93.1556C73.1266 94.4532 73.3198 95.9308 73.3962 97.3618C73.4753 98.7913 73.3131 100.231 72.8064 101.489C71.8323 103.991 70.7609 105.422 69.912 106.182C69.066 106.948 68.4463 107.053 68.4463 107.053Z" fill="#87B7FF"/>
<path d="M68.4452 107.053C67.9367 106.049 67.4361 105.134 66.9424 104.299C66.469 103.454 66.0288 102.676 65.5768 101.978C65.1356 101.275 64.6693 100.656 64.2622 100.077C63.85 99.5009 63.4405 98.9891 63.0342 98.5347C61.3825 96.7277 59.9147 95.7801 58.5122 95.3306C55.7316 94.4088 53.424 95.4825 52.4207 94.6345C52.4207 94.6345 52.5848 95.2911 52.9788 96.2972C53.3708 97.303 53.9081 98.6891 54.6784 100.121C55.4791 101.541 56.3908 103.054 57.532 104.296C58.675 105.538 59.9206 106.559 61.2701 107.058C64.0056 108.034 65.7809 107.993 66.893 107.753C68.0026 107.508 68.4452 107.053 68.4452 107.053Z" fill="#87B7FF"/>
<path d="M78.1412 122.199C77.3927 121.197 76.7295 120.246 76.1448 119.346C75.5657 118.442 75.1186 117.551 74.7097 116.733C73.8824 115.102 73.4374 113.608 73.1741 112.319C73.0445 111.672 72.9643 111.074 72.9343 110.514C72.9198 109.946 72.9478 109.42 73.0111 108.933C73.1375 107.96 73.4041 107.142 73.7499 106.441C74.4353 105.043 75.4575 104.096 76.3275 103.331C77.1939 102.569 77.9042 101.994 78.0285 101.362C78.0285 101.362 78.3227 101.893 78.7428 102.768C79.1959 103.626 79.7759 104.827 80.2957 106.214C80.8869 107.56 81.3786 109.118 81.7134 110.666C82.0668 112.201 82.1462 113.806 81.8438 115.266C81.2494 118.184 80.3552 119.962 79.5742 120.96C78.7968 121.962 78.1412 122.199 78.1412 122.199Z" fill="#87B7FF"/>
<path d="M78.1403 122.199C77.3923 121.197 76.6695 120.292 75.9696 119.472C75.2756 118.649 74.6566 117.873 74.0249 117.196C72.7528 115.849 71.6565 114.744 70.5902 113.901C70.0591 113.478 69.5394 113.119 69.0401 112.81C68.5563 112.491 68.0846 112.227 67.6267 112.01C66.7099 111.576 65.845 111.329 65.0362 111.206C63.4111 110.963 62.0338 111.214 60.904 111.445C59.7695 111.677 58.8762 111.89 58.2379 111.507C58.2379 111.507 58.5512 112.198 59.1336 113.259C59.7483 114.302 60.6366 115.715 61.7173 117.177C62.8684 118.597 64.1724 120.091 65.6528 121.255C67.152 122.406 68.7062 123.305 70.2959 123.586C73.4814 124.139 75.4121 123.748 76.5806 123.269C77.7448 122.784 78.1403 122.199 78.1403 122.199Z" fill="#87B7FF"/>
<path d="M91.8547 136.722C87.6827 133.041 85.4246 129.729 84.3629 126.998C83.836 125.624 83.5367 124.444 83.4968 123.344C83.447 122.253 83.5806 121.304 83.8239 120.468C84.3116 118.797 85.2299 117.575 86.0221 116.576C86.8227 115.574 87.4887 114.807 87.5077 114.095C87.5077 114.095 87.9138 114.622 88.5642 115.465C88.8901 115.886 89.266 116.394 89.6637 116.973C90.0624 117.551 90.4686 118.21 90.9232 118.878C91.8069 120.234 92.6482 121.821 93.343 123.413C93.6792 124.22 93.9453 125.058 94.1315 125.895C94.3351 126.715 94.4445 127.548 94.4261 128.378C94.3938 130.035 94.2148 131.421 93.9914 132.51C93.7686 133.601 93.4631 134.438 93.1491 135.064C92.5224 136.318 91.8547 136.722 91.8547 136.722Z" fill="#87B7FF"/>
<path d="M91.8552 136.721C87.6937 133.05 84.5121 130.692 81.8649 129.252C80.5499 128.528 79.3071 128.094 78.2322 127.788C77.1473 127.49 76.1545 127.387 75.2467 127.41C71.6001 127.487 69.3922 129.656 67.8506 129.068C67.8506 129.068 67.9745 129.24 68.1977 129.551C68.4217 129.861 68.7524 130.303 69.1999 130.815C69.6406 131.332 70.1747 131.937 70.7829 132.589C71.3925 133.24 72.0637 133.949 72.8435 134.614C74.3782 135.967 76.121 137.346 78.0081 138.303C78.9405 138.791 79.8759 139.208 80.8098 139.49C81.7604 139.755 82.6947 139.902 83.5894 139.896C85.383 139.878 86.7636 139.675 87.8761 139.349C88.9879 139.023 89.794 138.616 90.3811 138.225C91.5533 137.44 91.8552 136.721 91.8552 136.721Z" fill="#87B7FF"/>
<path d="M110.018 149.462C104.603 146.471 101.435 143.318 99.6603 140.608C99.2178 139.925 98.8527 139.277 98.566 138.647C98.2875 138.007 98.0786 137.396 97.9285 136.815C97.6301 135.648 97.5542 134.609 97.6558 133.628C98.0491 129.761 100.61 127.437 100.321 125.9C100.321 125.9 100.899 126.349 101.763 127.138C102.609 127.949 103.809 129.019 105.019 130.332C107.467 132.923 110.195 136.201 110.874 139.814C111.548 143.435 111.427 145.848 111.031 147.357C110.646 148.868 110.018 149.462 110.018 149.462Z" fill="#87B7FF"/>
<path d="M110.018 149.462C104.619 146.48 100.662 144.576 97.4394 143.618C96.6379 143.374 95.876 143.2 95.1626 143.069C94.4575 142.928 93.7918 142.843 93.1622 142.805C91.9052 142.727 90.7813 142.85 89.8108 143.05C85.8795 143.874 83.9288 146.723 82.0901 146.429C82.0901 146.429 82.7878 147.077 83.9649 148.043C84.5598 148.518 85.2469 149.106 86.0753 149.669C86.8963 150.241 87.8097 150.847 88.7846 151.444C89.778 152.018 90.8379 152.576 91.9236 153.087C93.0127 153.593 94.1607 154.005 95.2829 154.35C96.4006 154.702 97.5547 154.898 98.6405 154.999C99.7291 155.097 100.777 155.061 101.761 154.837C105.66 153.99 107.681 152.559 108.774 151.442C109.86 150.316 110.018 149.462 110.018 149.462Z" fill="#87B7FF"/>
<path d="M132.877 158.654C126.243 156.851 121.999 154.265 119.415 151.769C116.819 149.265 115.832 146.835 115.57 144.708C115.301 142.596 115.767 140.73 116.182 139.213C116.6 137.694 116.983 136.506 116.668 135.712C116.668 135.712 117.384 136.061 118.478 136.712C119.594 137.322 121.085 138.242 122.702 139.308C125.912 141.487 129.615 144.313 131.27 148.012C131.68 148.939 132.018 149.815 132.3 150.609C132.583 151.398 132.803 152.128 132.969 152.798C133.302 154.139 133.416 155.24 133.407 156.109C133.394 157.849 132.877 158.654 132.877 158.654Z" fill="#87B7FF"/>
<path d="M132.878 158.654C126.265 156.856 121.495 155.827 117.761 155.581C117.294 155.551 116.842 155.538 116.407 155.535C115.976 155.522 115.56 155.522 115.158 155.535C114.354 155.561 113.606 155.637 112.908 155.754C111.519 155.977 110.346 156.335 109.322 156.813C107.27 157.766 105.883 159.079 104.752 160.209C103.621 161.335 102.751 162.254 101.7 162.294C101.7 162.294 102.622 162.849 104.147 163.643C105.693 164.397 107.842 165.393 110.31 166.179C112.766 166.986 115.525 167.599 118.174 167.752C120.827 167.899 123.357 167.604 125.374 166.625C127.383 165.675 128.835 164.655 129.898 163.701C130.96 162.751 131.631 161.869 132.068 161.12C132.936 159.62 132.878 158.654 132.878 158.654Z" fill="#87B7FF"/>
<path d="M69.4096 14.2681C69.4018 15.3428 69.3082 16.3119 69.1464 17.1921C68.9859 18.0726 68.7424 18.8564 68.5111 19.5935C68.0303 21.0571 67.2993 22.1909 66.6345 23.1185C65.3009 24.9643 63.8412 25.8185 63.8412 25.8185C63.8412 25.8185 63.4264 24.2198 63.8722 21.8875C64.0907 20.7232 64.6216 19.4218 65.467 18.0747C65.8806 17.3966 66.4463 16.7445 67.1035 16.1042C67.761 15.4636 68.5259 14.8428 69.4096 14.2681Z" fill="#87B7FF"/>
</svg>
