<svg width="190" height="190" viewBox="0 0 190 190" fill="none" xmlns="http://www.w3.org/2000/svg">
<path d="M127.766 33.7104C127.411 32.5679 127.041 31.6145 126.663 30.8235C126.298 30.0284 125.847 29.4227 125.448 28.9316C124.629 27.9562 123.835 27.5028 123.109 27.3097C121.643 26.9327 120.449 27.5717 119.905 27.2341C119.905 27.2341 120.01 27.5228 120.211 27.9721C120.405 28.4243 120.66 29.0504 121.013 29.7067C121.364 30.3651 121.799 31.0598 122.316 31.6689C122.8 32.2889 123.369 32.8227 124.025 33.1411C125.336 33.7795 126.276 33.9345 126.882 33.9155C127.49 33.8986 127.766 33.7104 127.766 33.7104Z" fill="#87B7FF"/>
<path d="M127.766 33.7101C127.411 32.5676 127.178 31.5734 127.039 30.7002C126.912 29.8231 126.801 29.0942 126.814 28.447C126.817 27.161 127.125 26.2652 127.543 25.6082C128.364 24.2964 129.644 23.9582 129.783 23.2871C129.783 23.2871 129.927 23.6007 130.125 24.1154C130.315 24.6324 130.525 25.3641 130.708 26.1748C130.889 26.9873 131.028 27.8841 131.041 28.7437C131.019 29.6144 130.874 30.4454 130.525 31.1163C129.827 32.4565 129.133 33.0923 128.618 33.4072C128.103 33.7209 127.766 33.7101 127.766 33.7101Z" fill="#87B7FF"/>
<path d="M129.98 43.0158C128.965 37.7782 127.059 36.0175 125.519 35.4468C123.952 34.8772 122.554 35.4654 121.991 35.0386C121.991 35.0386 122.077 35.3668 122.253 35.8811C122.405 36.4027 122.634 37.1125 122.955 37.8717C123.631 39.3813 124.522 41.1279 125.913 41.9725C127.31 42.8155 128.321 43.0942 128.982 43.1435C129.65 43.1934 129.98 43.0158 129.98 43.0158Z" fill="#87B7FF"/>
<path d="M129.98 43.0158C128.972 37.8131 129.52 35.4087 130.602 34.0238C131.658 32.6507 133.097 32.4106 133.322 31.6782C133.322 31.6782 133.45 32.0421 133.617 32.6347C133.76 33.2343 133.932 34.0658 134.051 34.9869C134.323 36.8219 134.231 39.0465 133.323 40.4526C132.423 41.8574 131.574 42.4836 130.958 42.7768C130.347 43.0663 129.98 43.0158 129.98 43.0158Z" fill="#87B7FF"/>
<path d="M131.314 53.5585C130.863 47.6456 128.946 45.4783 127.285 44.6821C125.604 43.8798 124.022 44.3673 123.459 43.8336C123.459 43.8336 123.639 45.3202 124.198 47.0546C124.484 47.922 124.779 48.8673 125.242 49.7242C125.692 50.5829 126.285 51.3595 126.97 51.9107C128.372 53.0102 129.46 53.4421 130.195 53.577C130.931 53.714 131.314 53.5585 131.314 53.5585Z" fill="#87B7FF"/>
<path d="M131.315 53.5585C130.87 47.6886 131.738 45.0935 133.065 43.6879C134.376 42.2886 136.022 42.1809 136.363 41.3906C136.363 41.3906 136.716 43.0803 136.795 45.1526C136.84 46.1869 136.73 47.3258 136.523 48.3784C136.302 49.4328 135.957 50.4043 135.339 51.1315C134.137 52.5817 133.128 53.1683 132.423 53.4155C131.718 53.6595 131.315 53.5585 131.315 53.5585Z" fill="#87B7FF"/>
<path d="M131.439 65.3632C131.475 64.544 131.512 63.7842 131.472 63.0794C131.433 62.3745 131.37 61.7256 131.289 61.1295C131.132 59.9366 130.891 58.9537 130.545 58.1458C129.883 56.5287 129.046 55.6086 128.168 55.0593C126.383 53.9702 124.58 54.313 124.008 53.6603C124.008 53.6603 124.022 54.0735 124.092 54.7313C124.181 55.3878 124.244 56.2945 124.429 57.2819C124.834 59.2556 125.416 61.5734 126.876 62.968C128.291 64.3618 129.407 64.9843 130.205 65.2312C130.994 65.4824 131.439 65.3632 131.439 65.3632Z" fill="#87B7FF"/>
<path d="M131.44 65.3634C131.726 58.8318 132.995 56.0761 134.673 54.6834C136.264 53.2995 138.1 53.3835 138.556 52.5489C138.556 52.5489 138.612 53.0275 138.653 53.7961C138.712 54.5639 138.675 55.6253 138.574 56.7803C138.407 59.0917 137.673 61.7743 136.211 63.221C134.706 64.6671 133.488 65.1771 132.682 65.3554C131.869 65.5294 131.44 65.3634 131.44 65.3634Z" fill="#87B7FF"/>
<path d="M129.908 78.3904C130.069 77.4935 130.201 76.6592 130.28 75.8799C130.337 75.0975 130.362 74.3735 130.357 73.7053C130.353 73.0371 130.32 72.4233 130.262 71.8609C130.189 71.2965 130.078 70.7817 129.957 70.314C129.459 68.4419 128.675 67.3155 127.75 66.5904C125.94 65.1516 123.904 65.2864 123.367 64.4947C123.367 64.4947 123.323 64.9488 123.306 65.6776C123.297 66.0419 123.295 66.4754 123.309 66.9562C123.309 67.4364 123.308 67.9624 123.339 68.515C123.5 70.7298 123.831 73.3493 125.233 75.0906C126.573 76.8219 127.729 77.6749 128.567 78.0637C129.401 78.4558 129.908 78.3904 129.908 78.3904Z" fill="#87B7FF"/>
<path d="M129.908 78.3904C130.069 77.4935 130.255 76.669 130.436 75.9047C130.594 75.1372 130.767 74.4337 130.954 73.7869C131.141 73.1404 131.341 72.5511 131.552 72.0129C131.747 71.4726 131.941 70.9826 132.154 70.5386C132.993 68.7627 134.018 67.7154 134.975 67.0617C136.929 65.748 138.94 66.0883 139.563 65.2244C139.563 65.2244 139.556 65.7634 139.49 66.6213C139.458 67.0507 139.41 67.5597 139.342 68.1201C139.261 68.6799 139.141 69.2899 139.001 69.923C138.483 72.463 137.306 75.3359 135.479 76.7237C133.591 78.1016 132.195 78.4874 131.277 78.5644C130.357 78.6365 129.908 78.3904 129.908 78.3904Z" fill="#87B7FF"/>
<path d="M126.226 92.4892C126.535 91.5247 126.79 90.6208 127 89.776C127.213 88.9327 127.376 88.1473 127.453 87.4051C127.626 85.9258 127.673 84.6817 127.542 83.6145C127.26 81.4752 126.55 80.1171 125.672 79.1901C123.884 77.3404 121.622 77.1881 121.143 76.2433C121.143 76.2433 121.03 76.7328 120.909 77.5272C120.809 78.3258 120.605 79.4101 120.519 80.6291C120.468 81.237 120.461 81.8828 120.45 82.5306C120.434 83.1774 120.452 83.8359 120.521 84.4862C120.589 85.1365 120.706 85.779 120.887 86.3919C121.05 86.9999 121.269 87.5765 121.575 88.1048C122.792 90.219 123.944 91.35 124.804 91.9129C125.658 92.4787 126.226 92.4892 126.226 92.4892Z" fill="#87B7FF"/>
<path d="M126.227 92.4896C128.759 84.8296 131.115 81.935 133.557 80.7884C135.896 79.626 138.062 80.2978 138.873 79.431C138.873 79.431 138.787 80.0279 138.591 80.971C138.417 81.9184 138.035 83.1924 137.546 84.5576C137.293 85.2381 137.028 85.9449 136.688 86.6296C136.343 87.3126 135.963 87.9833 135.548 88.6079C135.132 89.2328 134.682 89.8116 134.198 90.3127C133.696 90.8083 133.152 91.2233 132.583 91.532C130.301 92.7606 128.723 92.9653 127.703 92.9025C126.68 92.8329 126.227 92.4896 126.227 92.4896Z" fill="#87B7FF"/>
<path d="M119.75 107.327C120.269 106.328 120.72 105.388 121.108 104.503C121.477 103.609 121.756 102.758 121.997 101.97C122.227 101.177 122.433 100.452 122.537 99.7552C122.646 99.0599 122.708 98.4178 122.731 97.8237C122.851 95.4568 122.206 93.8173 121.404 92.6628C119.765 90.3543 117.329 89.8282 116.929 88.7128C116.929 88.7128 116.747 89.2338 116.457 90.0682C116.166 90.9023 115.849 92.0784 115.541 93.3847C115.202 94.6789 114.993 96.1543 114.902 97.5844C114.808 99.013 114.955 100.454 115.448 101.718C116.396 104.23 117.452 105.672 118.293 106.441C119.131 107.215 119.75 107.327 119.75 107.327Z" fill="#87B7FF"/>
<path d="M119.751 107.327C120.27 106.328 120.78 105.419 121.282 104.589C121.765 103.749 122.213 102.976 122.672 102.282C123.121 101.584 123.594 100.97 124.007 100.396C124.425 99.8237 124.84 99.3163 125.251 98.8662C126.922 97.0767 128.399 96.1446 129.807 95.7099C132.597 94.8174 134.893 95.9153 135.905 95.0779C135.905 95.0779 135.734 95.7328 135.329 96.7346C134.927 97.7362 134.375 99.1167 133.59 100.541C132.774 101.952 131.846 103.455 130.692 104.685C129.536 105.914 128.28 106.923 126.925 107.408C124.18 108.355 122.405 108.295 121.295 108.043C120.188 107.786 119.751 107.327 119.751 107.327Z" fill="#87B7FF"/>
<path d="M109.897 122.37C110.656 121.376 111.329 120.432 111.924 119.539C112.512 118.641 112.969 117.755 113.386 116.941C114.231 115.318 114.691 113.829 114.968 112.542C115.105 111.897 115.191 111.3 115.227 110.741C115.247 110.172 115.225 109.647 115.167 109.159C115.051 108.184 114.793 107.363 114.454 106.659C113.784 105.254 112.771 104.296 111.909 103.522C111.051 102.751 110.347 102.169 110.229 101.536C110.229 101.536 109.929 102.063 109.5 102.934C109.038 103.787 108.445 104.982 107.911 106.364C107.306 107.703 106.798 109.256 106.447 110.801C106.077 112.331 105.981 113.936 106.268 115.399C106.832 118.322 107.707 120.11 108.477 121.116C109.244 122.127 109.897 122.37 109.897 122.37Z" fill="#87B7FF"/>
<path d="M109.898 122.37C110.657 121.376 111.389 120.478 112.098 119.667C112.8 118.85 113.427 118.081 114.066 117.411C115.352 116.077 116.46 114.984 117.535 114.152C118.071 113.735 118.594 113.381 119.097 113.077C119.584 112.763 120.058 112.505 120.519 112.293C121.44 111.868 122.307 111.63 123.117 111.516C124.745 111.29 126.12 111.555 127.247 111.798C128.379 112.042 129.27 112.264 129.912 111.888C129.912 111.888 129.591 112.576 128.998 113.631C128.372 114.667 127.469 116.071 126.373 117.522C125.207 118.929 123.888 120.41 122.395 121.557C120.884 122.693 119.32 123.575 117.728 123.84C114.536 124.359 112.61 123.947 111.447 123.456C110.288 122.959 109.898 122.37 109.898 122.37Z" fill="#87B7FF"/>
<path d="M96.0304 136.748C100.241 133.111 102.534 129.823 103.624 127.103C104.165 125.735 104.477 124.559 104.529 123.459C104.59 122.368 104.466 121.418 104.232 120.58C103.762 118.904 102.856 117.672 102.075 116.665C101.285 115.654 100.627 114.88 100.615 114.168C100.615 114.168 100.204 114.69 99.5445 115.527C99.2142 115.944 98.8329 116.449 98.4292 117.024C98.0244 117.597 97.6113 118.252 97.1497 118.915C96.2518 120.262 95.3938 121.84 94.6823 123.425C94.3376 124.227 94.0626 125.063 93.8677 125.898C93.6555 126.715 93.5374 127.547 93.547 128.378C93.5618 130.035 93.7262 131.422 93.9381 132.514C94.1495 133.607 94.4461 134.448 94.7535 135.077C95.367 136.337 96.0304 136.748 96.0304 136.748Z" fill="#87B7FF"/>
<path d="M96.03 136.748C100.23 133.12 103.436 130.796 106.098 129.384C107.421 128.674 108.668 128.252 109.746 127.958C110.834 127.672 111.828 127.579 112.736 127.611C116.381 127.727 118.566 129.919 120.114 129.347C120.114 129.347 119.988 129.518 119.762 129.826C119.534 130.134 119.199 130.573 118.746 131.08C118.3 131.592 117.76 132.192 117.145 132.837C116.528 133.482 115.849 134.184 115.063 134.841C113.514 136.177 111.757 137.538 109.86 138.475C108.922 138.954 107.982 139.36 107.046 139.633C106.092 139.887 105.156 140.025 104.262 140.009C102.469 139.973 101.09 139.754 99.9811 139.417C98.8729 139.079 98.0711 138.664 97.4882 138.266C96.3242 137.469 96.03 136.748 96.03 136.748Z" fill="#87B7FF"/>
<path d="M77.7359 149.296C83.1821 146.362 86.3834 143.242 88.186 140.552C88.6357 139.873 89.0077 139.229 89.301 138.602C89.5862 137.965 89.8015 137.356 89.9577 136.776C90.2684 135.613 90.3552 134.575 90.2639 133.593C89.9113 129.722 87.3747 127.371 87.6805 125.837C87.6805 125.837 87.0974 126.28 86.2255 127.06C85.3704 127.862 84.1601 128.919 82.9359 130.22C80.461 132.785 77.6979 136.034 76.9809 139.639C76.2693 143.253 76.3646 145.667 76.7447 147.18C77.1137 148.696 77.7359 149.296 77.7359 149.296Z" fill="#87B7FF"/>
<path d="M77.7355 149.296C83.1656 146.371 87.1419 144.508 90.3747 143.584C91.1787 143.349 91.9424 143.183 92.6571 143.06C93.3637 142.926 94.0303 142.848 94.6602 142.817C95.9179 142.752 97.0405 142.886 98.0088 143.097C101.931 143.962 103.852 146.832 105.694 146.557C105.694 146.557 104.989 147.198 103.802 148.152C103.202 148.62 102.509 149.201 101.674 149.755C100.847 150.318 99.9277 150.915 98.9467 151.501C97.9472 152.064 96.8815 152.612 95.7906 153.111C94.6962 153.605 93.5439 154.006 92.4181 154.339C91.2967 154.679 90.1407 154.863 89.0539 154.953C87.9643 155.039 86.9168 154.992 85.9349 154.758C82.045 153.869 80.0399 152.417 78.9581 151.289C77.8845 150.151 77.7355 149.296 77.7355 149.296Z" fill="#87B7FF"/>
<path d="M54.78 158.247C61.4326 156.514 65.7041 153.973 68.3138 151.505C70.9368 149.028 71.9488 146.608 72.2332 144.484C72.5243 142.375 72.0779 140.505 71.6795 138.983C71.2769 137.46 70.907 136.267 71.2299 135.477C71.2299 135.477 70.5105 135.819 69.4097 136.458C68.2872 137.057 66.7866 137.96 65.1587 139.009C61.9261 141.154 58.1934 143.941 56.4995 147.623C56.0799 148.545 55.7325 149.418 55.4423 150.209C55.1507 150.995 54.9233 151.723 54.75 152.391C54.4033 153.728 54.2778 154.828 54.2777 155.697C54.2721 157.436 54.78 158.247 54.78 158.247Z" fill="#87B7FF"/>
<path d="M54.7786 158.247C61.4094 156.519 66.1903 155.54 69.9271 155.333C70.3942 155.309 70.8461 155.3 71.2812 155.302C71.7119 155.293 72.1283 155.298 72.5301 155.315C73.3337 155.35 74.0809 155.434 74.7777 155.558C76.1645 155.795 77.3335 156.166 78.3528 156.654C80.3941 157.629 81.7672 158.957 82.886 160.098C84.0056 161.236 84.8657 162.164 85.916 162.215C85.916 162.215 84.9882 162.76 83.4555 163.539C81.9016 164.276 79.742 165.25 77.2662 166.01C74.8018 166.79 72.0361 167.375 69.3852 167.499C66.7317 167.619 64.205 167.297 62.1979 166.297C60.1989 165.326 58.7583 164.29 57.7045 163.325C56.6535 162.364 55.9912 161.475 55.5623 160.722C54.7104 159.213 54.7786 158.247 54.7786 158.247Z" fill="#87B7FF"/>
<path d="M119.763 14.5373C119.759 15.612 119.842 16.582 119.995 17.4639C120.146 18.346 120.382 19.1324 120.605 19.8719C121.07 21.3404 121.789 22.4819 122.444 23.4164C123.759 25.2762 125.209 26.1456 125.209 26.1456C125.209 26.1456 125.641 24.5514 125.22 22.2146C125.013 21.048 124.496 19.7411 123.665 18.3851C123.258 17.7027 122.7 17.0447 122.049 16.3976C121.399 15.75 120.64 15.1213 119.763 14.5373Z" fill="#87B7FF"/>
</svg>
