<svg width="300" height="300" viewBox="0 0 653 779" fill="none" xmlns="http://www.w3.org/2000/svg">
<path d="M207.614 258.972C94.4659 96.7495 117.029 -52.0088 142.454 -106.11H316.469C346 50.0615 377.667 82.8979 383.179 92.1707C397.761 116.7 564.46 356.409 653 470.335V771.64H590.523C510.032 668.343 320.762 421.194 207.614 258.972Z" fill="#D2E4FF"/>
<path d="M477.286 265.34C601.511 166.94 602.056 -9.67199 586.801 -85.6783H653V166.859C634.693 208.049 534.495 261.39 486.685 282.911L477.286 265.34Z" fill="#D2E4FF"/>
<path d="M24.9586 582.442C76.6102 468.677 215.487 385.343 281.549 360.144L295.476 376.489C231.728 447.183 239.084 479.057 228.051 582.442C219.224 665.15 264.147 747.667 287.711 778.587H18.0118C-14.6791 710.917 9.02176 619.627 24.9586 582.442Z" fill="#D2E4FF"/>
</svg>
