<svg width="72" height="70" viewBox="0 0 72 70" fill="none" xmlns="http://www.w3.org/2000/svg">
<path d="M20.5645 9.83972L25.8713 19.9006" stroke="#052A11" stroke-opacity="0.1" stroke-width="3"/>
<path d="M12.8252 30.2931L20.7854 29.5192" stroke="#052A11" stroke-opacity="0.1" stroke-width="3"/>
<path d="M9.17676 24.7651L16.0314 10.0608" stroke="#052A11" stroke-opacity="0.1" stroke-width="3"/>
<path d="M45.1082 50.9675L35.8213 37.0371" stroke="#052A11" stroke-opacity="0.1" stroke-width="3"/>
<path d="M28.0815 37.9216L23.6592 54.8371" stroke="#052A11" stroke-opacity="0.1" stroke-width="3"/>
<path d="M12.3828 34.2732L44.0026 52.2942" stroke="#052A11" stroke-opacity="0.1" stroke-width="3"/>
<path d="M8.84473 36.1527L18.3528 55.2794M28.7453 60.2545L43.339 56.0533" stroke="#052A11" stroke-opacity="0.1" stroke-width="3"/>
<path d="M50.5254 50.9675L59.8123 36.2632" stroke="#052A11" stroke-opacity="0.1" stroke-width="3"/>
<path d="M48.2041 50.3041L52.9581 13.7092" stroke="#052A11" stroke-opacity="0.1" stroke-width="3"/>
<path d="M56.8271 26.534L22.4434 7.84961" stroke="#052A11" stroke-opacity="0.1" stroke-width="3"/>
<path d="M22.9961 5.97021L49.4196 8.9553" stroke="#052A11" stroke-opacity="0.1" stroke-width="3"/>
<path d="M50.9672 12.1615L38.2529 22.3329" stroke="#052A11" stroke-opacity="0.1" stroke-width="3"/>
<path d="M40.0225 29.298L56.164 29.9613" stroke="#052A11" stroke-opacity="0.1" stroke-width="3"/>
<circle cx="17.9109" cy="5.0857" r="3.5857" stroke="#052A11" stroke-opacity="0.1" stroke-width="3"/>
<circle cx="54.0628" cy="9.39748" r="2.81179" stroke="#052A11" stroke-opacity="0.1" stroke-width="3"/>
<circle cx="47.8723" cy="54.7265" r="2.81179" stroke="#052A11" stroke-opacity="0.1" stroke-width="3"/>
<circle cx="6.30184" cy="30.8459" r="4.80184" stroke="#052A11" stroke-opacity="0.1" stroke-width="3"/>
<circle cx="63.9028" cy="29.6297" r="6.01799" stroke="#052A11" stroke-opacity="0.1" stroke-width="3"/>
<circle cx="30.5139" cy="28.7452" r="8.00804" stroke="#052A11" stroke-opacity="0.1" stroke-width="3"/>
<circle cx="21.5588" cy="62.0234" r="5.90743" stroke="#052A11" stroke-opacity="0.1" stroke-width="3"/>
</svg>
