<svg width="1154" height="437" viewBox="0 0 1154 437" fill="none" xmlns="http://www.w3.org/2000/svg">
<g filter="url(#filter0_d_550_542)">
<path d="M127.288 11.8454C102.026 -2.1109 12.9769 -2.51861 4.87242 22.92C38.3054 25.2494 97.1619 143.854 109.636 136.203C122.109 128.551 132.658 16.4308 127.288 11.8454Z" fill="#D4E1FF" fill-opacity="0.3" shape-rendering="crispEdges"/>
</g>
<g filter="url(#filter1_d_550_542)">
<path d="M619.288 305.845C594.026 291.889 504.977 291.482 496.872 316.92C530.305 319.25 589.162 437.854 601.636 430.203C614.109 422.551 624.658 310.431 619.288 305.845Z" fill="#B1C8FF" fill-opacity="0.15" shape-rendering="crispEdges"/>
</g>
<g filter="url(#filter2_d_550_542)">
<path d="M1149.56 75.3588C1142.54 80.5957 1115.77 84.3831 1112.29 77.0661C1111.05 74.252 1112.73 72.3522 1113.8 72.3185C1123.76 70.2421 1135.07 36.8976 1139.14 38.6854C1143.2 40.4732 1150.99 73.7587 1149.56 75.3588Z" fill="#B1C8FF" fill-opacity="0.5" shape-rendering="crispEdges"/>
</g>
<defs>
<filter id="filter0_d_550_542" x="0.872559" y="0.334839" width="131.851" height="142.223" filterUnits="userSpaceOnUse" color-interpolation-filters="sRGB">
<feFlood flood-opacity="0" result="BackgroundImageFix"/>
<feColorMatrix in="SourceAlpha" type="matrix" values="0 0 0 0 0 0 0 0 0 0 0 0 0 0 0 0 0 0 127 0" result="hardAlpha"/>
<feOffset dy="2"/>
<feGaussianBlur stdDeviation="2"/>
<feComposite in2="hardAlpha" operator="out"/>
<feColorMatrix type="matrix" values="0 0 0 0 0 0 0 0 0 0 0 0 0 0 0 0 0 0 0.13 0"/>
<feBlend mode="normal" in2="BackgroundImageFix" result="effect1_dropShadow_550_542"/>
<feBlend mode="normal" in="SourceGraphic" in2="effect1_dropShadow_550_542" result="shape"/>
</filter>
<filter id="filter1_d_550_542" x="492.873" y="294.335" width="131.851" height="142.223" filterUnits="userSpaceOnUse" color-interpolation-filters="sRGB">
<feFlood flood-opacity="0" result="BackgroundImageFix"/>
<feColorMatrix in="SourceAlpha" type="matrix" values="0 0 0 0 0 0 0 0 0 0 0 0 0 0 0 0 0 0 127 0" result="hardAlpha"/>
<feOffset dy="2"/>
<feGaussianBlur stdDeviation="2"/>
<feComposite in2="hardAlpha" operator="out"/>
<feColorMatrix type="matrix" values="0 0 0 0 0 0 0 0 0 0 0 0 0 0 0 0 0 0 0.13 0"/>
<feBlend mode="normal" in2="BackgroundImageFix" result="effect1_dropShadow_550_542"/>
<feBlend mode="normal" in="SourceGraphic" in2="effect1_dropShadow_550_542" result="shape"/>
</filter>
<filter id="filter2_d_550_542" x="1107.85" y="36.6161" width="45.8828" height="50.5183" filterUnits="userSpaceOnUse" color-interpolation-filters="sRGB">
<feFlood flood-opacity="0" result="BackgroundImageFix"/>
<feColorMatrix in="SourceAlpha" type="matrix" values="0 0 0 0 0 0 0 0 0 0 0 0 0 0 0 0 0 0 127 0" result="hardAlpha"/>
<feOffset dy="2"/>
<feGaussianBlur stdDeviation="2"/>
<feComposite in2="hardAlpha" operator="out"/>
<feColorMatrix type="matrix" values="0 0 0 0 0 0 0 0 0 0 0 0 0 0 0 0 0 0 0.13 0"/>
<feBlend mode="normal" in2="BackgroundImageFix" result="effect1_dropShadow_550_542"/>
<feBlend mode="normal" in="SourceGraphic" in2="effect1_dropShadow_550_542" result="shape"/>
</filter>
</defs>
</svg>
