<svg width="648" height="551" viewBox="0 0 648 551" fill="none" xmlns="http://www.w3.org/2000/svg">
<path d="M587.732 276.268C587.732 405.701 506.462 424.111 364.816 424.111C167.068 402.209 165.869 381.401 102.349 304.741C61.6149 175.515 44.5969 96.6654 186.243 96.6654C276.127 96.6654 587.732 146.835 587.732 276.268Z" fill="#B2D1FE"/>
<path d="M578.23 145.831C593.343 172.007 600.315 195.345 600.185 216.844C600.054 238.336 592.825 258.039 579.45 276.951C552.678 314.805 501.335 349.431 433.215 388.761C337.423 432.753 273.581 451.881 227.914 456.998C182.273 462.113 154.78 453.233 131.66 441.165C127.471 438.978 123.551 436.249 119.901 433.224C95.8935 413.327 74.8621 395.056 58.8983 377.633C42.9298 360.206 32.0759 343.675 28.3598 327.267C24.6513 310.893 28.038 294.581 40.6881 277.533C53.3539 260.464 75.3025 242.666 108.7 223.383C151.887 198.449 254.256 152.895 353.389 126.688C402.957 113.585 451.681 105.328 491.776 106.889C531.891 108.451 563.218 119.831 578.23 145.831Z" stroke="#B2D1FE"/>
</svg>
