<svg width="983" height="474" viewBox="0 0 983 474" fill="none" xmlns="http://www.w3.org/2000/svg">
<path d="M781.367 204.062C670.601 103.717 771.818 32.2103 836.272 9H969V474C924.757 452.379 843.147 389.489 870.648 310.892C898.148 232.295 844.389 253.185 781.367 204.062Z" fill="#D2E4FF"/>
<path d="M795.367 195.062C684.601 94.7169 785.818 23.2103 850.272 0H983V465C938.757 443.379 857.147 380.489 884.648 301.892C912.148 223.295 858.389 244.185 795.367 195.062Z" fill="#8DBBFF"/>
<path d="M252 164.5C140.8 214.9 37.6667 143.5 0 101.5L729.5 97C713.1 125.8 744 170 761.5 188.5C661.5 200.5 509.5 119 439.5 119C376 114.671 363.2 114.1 252 164.5Z" fill="#D2E4FF"/>
<path d="M235 154.5C119.021 192.637 41.6667 134.5 4 92.5L712.5 87C696.1 115.8 727 160 744.5 178.5C646.5 178.5 492.5 109 422.5 109C359 104.671 346 118 235 154.5Z" fill="#8DBBFF"/>
</svg>