<svg width="24" height="25" viewBox="0 0 24 25" fill="none" xmlns="http://www.w3.org/2000/svg">
<path d="M7 10.167C7 9.45967 7.28099 8.78131 7.78115 8.28115C8.28131 7.78099 8.95967 7.5 9.667 7.5H18.333C18.6832 7.5 19.03 7.56898 19.3536 7.70301C19.6772 7.83704 19.9712 8.03349 20.2189 8.28115C20.4665 8.5288 20.663 8.82281 20.797 9.14638C20.931 9.46996 21 9.81676 21 10.167V18.833C21 19.1832 20.931 19.53 20.797 19.8536C20.663 20.1772 20.4665 20.4712 20.2189 20.7189C19.9712 20.9665 19.6772 21.163 19.3536 21.297C19.03 21.431 18.6832 21.5 18.333 21.5H9.667C9.31676 21.5 8.96996 21.431 8.64638 21.297C8.32281 21.163 8.0288 20.9665 7.78115 20.7189C7.53349 20.4712 7.33704 20.1772 7.20301 19.8536C7.06898 19.53 7 19.1832 7 18.833V10.167Z" stroke="#151515" stroke-width="2" stroke-linecap="round" stroke-linejoin="round"/>
<path d="M4.012 17.237C3.70534 17.0622 3.45027 16.8095 3.27258 16.5045C3.09488 16.1995 3.00085 15.853 3 15.5V5.5C3 4.4 3.9 3.5 5 3.5H15C15.75 3.5 16.158 3.885 16.5 4.5" stroke="#151515" stroke-width="2" stroke-linecap="round" stroke-linejoin="round"/>
</svg>
