<svg width="24" height="25" viewBox="0 0 24 25" fill="none" xmlns="http://www.w3.org/2000/svg">
<path d="M21.7875 11.2334L8.28 2.97031C8.05227 2.83086 7.79144 2.75473 7.52445 2.74979C7.25746 2.74484 6.99399 2.81126 6.76125 2.94219C6.53073 3.07108 6.3387 3.25904 6.2049 3.48675C6.07111 3.71446 6.00039 3.9737 6 4.23781V20.7622C6.00174 21.1584 6.16072 21.5376 6.442 21.8166C6.72328 22.0956 7.10383 22.2515 7.5 22.25C7.77652 22.2499 8.04767 22.1737 8.28375 22.0297L21.7875 13.7666C22.0046 13.6343 22.184 13.4484 22.3084 13.2267C22.4329 13.0051 22.4983 12.7551 22.4983 12.5009C22.4983 12.2467 22.4329 11.9968 22.3084 11.7752C22.184 11.5535 22.0046 11.3676 21.7875 11.2353V11.2334ZM7.5 20.7444V4.25L20.9841 12.5L7.5 20.7444Z" fill="white"/>
</svg>
